<svg width="150" height="150" viewBox="0 0 150 150" fill="none" xmlns="http://www.w3.org/2000/svg">
<g id="Nav-Arrow 1">
<path id="Vector" d="M134.436 73.34C134.436 74.8656 133.764 76.2694 132.543 77.4294L92.0161 117.956C90.7344 119.116 89.4526 119.604 88.0488 119.604C84.997 119.604 82.6776 117.408 82.6776 114.356C82.6776 112.952 83.227 111.487 84.2039 110.51L97.8144 96.5944L118.444 77.8563L103.613 78.8331H26.4645C23.2907 78.8331 21.0932 76.5138 21.0932 73.34C21.0932 70.1663 23.2907 67.9075 26.4645 67.9075H103.613L118.383 68.8231L97.8144 50.0854L84.2039 36.2305C83.1657 35.1929 82.6776 33.7891 82.6776 32.3243C82.6776 29.3335 84.997 27.0752 88.0488 27.0752C89.4526 27.0752 90.7954 27.6245 92.1382 28.9063L132.543 69.2506C133.764 70.4713 134.436 71.875 134.436 73.34Z" fill="white"/>
</g>
</svg>
